# xmcd CD database file
#
# Track frame offsets:
#	150
#	9739
#	21484
#	31611
#	41717
#	54957
#	64771
#	79402
#	92228
#	104303
#	116082
#	129952
#	144741
#	163302
#	179661
#	193346
#	206866
#	220182
#	235358
#	246130
#	256810
#	268141
#
# Disc length: 3751 seconds
#
# Revision: 1
# Processed by: cddbd v1.5.2PL0 Copyright (c) Steve Scherf et al.
# Submitted via: CDex 1.70beta2
#
DISCID=4f0ea516
DTITLE=Various Artist - Women Of Country
DYEAR=1900
DGENRE=Country
TTITLE0=Lynn Anderson - Rose Garden
TTITLE1=Patsy Cline - The Heart You Break 
TTITLE2=Billie Jo Spears - I'm So Lonesome
TTITLE3=Dolly Parton - It wasn't god Who Made Honky Tonk
TTITLE4=Lynn Anderson -  I Was Country
TTITLE5=Patsy Cline - If I Could See The World
TTITLE6=Billie Jo Spears /Mr Walker Its All Over
TTITLE7=Lacy J Dalton - 16th Ave
TTITLE8=Janie Fricke - Always Have Always will
TTITLE9=Juice Newton - Angel of The Morning
TTITLE10=Jeannie C. Pruett /Satin Sheets
TTITLE11=Lynn Anderson - Cry
TTITLE12=Patsy Cline - Walkin After Midnight
TTITLE13=Dolly Parton - Makin Believe
TTITLE14=Billie Jo Spears - He's on The Run Again
TTITLE15=Holly Dunn /Love Someone Like Me
TTITLE16=Lynn Anderson - What A Man My Man Is
TTITLE17=Janie Fricke - He's A Heartache
TTITLE18=Patsy Cline - Wlaking Dream
TTITLE19=Dolly Parton - Release Me
TTITLE20=Billie Jo Spears - Ease The Want
TTITLE21=Lynn Anderson - Snowbird
EXTD=
EXTT0=
EXTT1=
EXTT2=
EXTT3=
EXTT4=
EXTT5=
EXTT6=
EXTT7=
EXTT8=
EXTT9=
EXTT10=
EXTT11=
EXTT12=
EXTT13=
EXTT14=
EXTT15=
EXTT16=
EXTT17=
EXTT18=
EXTT19=
EXTT20=
EXTT21=
PLAYORDER=
